<?xml version="1.0" encoding="UTF-8" standalone="no"?>
<svg
   xmlns:dc="http://purl.org/dc/elements/1.1/"
   xmlns:cc="http://creativecommons.org/ns#"
   xmlns:rdf="http://www.w3.org/1999/02/22-rdf-syntax-ns#"
   xmlns:svg="http://www.w3.org/2000/svg"
   xmlns="http://www.w3.org/2000/svg"
   xmlns:sodipodi="http://sodipodi.sourceforge.net/DTD/sodipodi-0.dtd"
   xmlns:inkscape="http://www.inkscape.org/namespaces/inkscape"
   viewBox="0 0 251.46 250.81"
   version="1.1"
   id="svg24"
   sodipodi:docname="program-new.svg"
   inkscape:version="0.92.4 (5da689c313, 2019-01-14)">
  <metadata
     id="metadata30">
    <rdf:RDF>
      <cc:Work
         rdf:about="">
        <dc:format>image/svg+xml</dc:format>
        <dc:type
           rdf:resource="http://purl.org/dc/dcmitype/StillImage" />
      </cc:Work>
    </rdf:RDF>
  </metadata>
  <defs
     id="defs28" />
  <sodipodi:namedview
     pagecolor="#ffffff"
     bordercolor="#666666"
     borderopacity="1"
     objecttolerance="10"
     gridtolerance="10"
     guidetolerance="10"
     inkscape:pageopacity="0"
     inkscape:pageshadow="2"
     inkscape:window-width="1661"
     inkscape:window-height="809"
     id="namedview26"
     showgrid="false"
     inkscape:zoom="0.94095133"
     inkscape:cx="125.73"
     inkscape:cy="125.405"
     inkscape:window-x="183"
     inkscape:window-y="114"
     inkscape:window-maximized="0"
     inkscape:current-layer="svg24" />
  <g
     id="g4591">
    <path
       d="m 27.237,21.563 h 198.1 c 2.8,0 4.4,1.57 4.4,3.87 l 0.06,200.16 c 0,2.13 -2.03,3.66 -4.38,3.66 H 29.267 c -7.14,0 -7.23,0 -7.23,-6.4 V 27.873 c 0,-4.6 1.08,-6.32 5.2,-6.32 z"
       id="path12"
       inkscape:connector-curvature="0"
       style="fill:#fbfbfb;stroke:#000000;stroke-width:4.69999981;stroke-linejoin:round;fill-opacity:1" />
    <path
       d="m 104.687,19.263 -0.08,-16.9 m -84.92,185.33 -17.3,0.07 m 246.47,0.16 -17.32,0.08 m 17.65,-41.96 -17.2,0.07 m 17,-41.8 -16.9,0.08 m 16.7,-41.82 -16.92,0.08 m -43.85,-43.33 -0.08,-16.9 m -41.8,16.84 -0.08,-16.9 m -83.14,17.28 -0.07,-17.36 m -43.66,60.52 -16.9,0.07 m 17.12,41.67 -16.9,0.07 m 17.08,41.65 -17.2,0.07 m 60.38,101.88 -0.07,-16.9 m 83.51,17.07 -0.07,-16.9 m 41.88,16.86 -0.08,-16.92 m -83.25,17.12 -0.08,-16.92 m -41.58,-20.98 h 124.66"
       id="path2"
       inkscape:connector-curvature="0"
       style="fill:none;stroke:#000000;stroke-width:4.5;stroke-linecap:round" />
    <path
       d="m 104.317,210.403 v -36.2 l -27.8,-15.68"
       id="path4"
       inkscape:connector-curvature="0"
       style="fill:none;stroke:#000000;stroke-width:4.4000001" />
    <path
       d="m 124.767,131.173 -33.36,-19.04"
       id="path6"
       inkscape:connector-curvature="0"
       style="fill:none;stroke:#000000;stroke-width:5" />
    <path
       d="M 125.767,209.243 V 93.413"
       id="path8"
       inkscape:connector-curvature="0"
       style="fill:none;stroke:#000000;stroke-width:4.49999952" />
    <path
       d="m 146.317,209.443 v -76.87 l 26.86,-14.75"
       id="path10"
       inkscape:connector-curvature="0"
       style="fill:none;stroke:#000000;stroke-width:4.4000001" />
    <circle
       cx="75.575333"
       cy="100.86143"
       r="20.60775"
       id="circle14"
       style="fill:#8b63a9" />
    <circle
       cx="125.87991"
       cy="73.859535"
       r="20.60775"
       id="circle16"
       style="fill:#0cb2dd" />
    <circle
       cx="191.52165"
       cy="110.23655"
       r="20.60775"
       id="circle18"
       style="fill:#f48414" />
    <circle
       cx="59.985195"
       cy="150.39536"
       r="20.60775"
       id="circle20"
       style="fill:#009641" />
  </g>
</svg>
